<?xml version="1.0" standalone="no"?>
<!DOCTYPE svg PUBLIC "-//W3C//DTD SVG 20010904//EN"
 "http://www.w3.org/TR/2001/REC-SVG-20010904/DTD/svg10.dtd">
<svg version="1.0" xmlns="http://www.w3.org/2000/svg"
 width="1024.000000pt" height="1024.000000pt" viewBox="0 0 1024.000000 1024.000000"
 preserveAspectRatio="xMidYMid meet">

<g transform="translate(0.000000,1024.000000) scale(0.100000,-0.100000)"
fill="#000000" stroke="none">
<path d="M0 5120 l0 -5120 5120 0 5120 0 0 5120 0 5120 -5120 0 -5120 0 0
-5120z m5544 3121 c517 -84 1039 -305 1440 -608 548 -414 909 -933 1091 -1568
85 -294 115 -493 122 -805 14 -602 -114 -1113 -412 -1641 -162 -287 -445 -626
-700 -839 -111 -93 -196 -156 -345 -253 -102 -66 -336 -197 -353 -197 -4 0
-27 39 -51 88 l-44 87 86 45 c116 60 382 239 512 343 123 99 356 336 452 458
161 207 321 474 413 688 232 544 288 1250 146 1841 -120 500 -362 932 -731
1301 -159 159 -309 284 -460 381 -378 243 -842 415 -1265 469 -132 17 -561 17
-685 0 -210 -28 -508 -109 -727 -196 -386 -155 -712 -371 -979 -647 -433 -449
-680 -927 -778 -1505 -120 -714 13 -1432 372 -2005 303 -484 602 -777 1106
-1084 66 -41 125 -74 130 -74 6 0 17 -4 24 -9 11 -6 5 -26 -28 -92 -23 -46
-43 -85 -45 -87 -1 -1 -51 23 -111 54 -361 190 -677 435 -916 712 -348 403
-577 839 -707 1345 -84 327 -108 695 -70 1085 47 486 234 990 517 1396 420
600 1041 1039 1740 1230 157 43 338 81 457 95 50 6 101 13 115 15 14 3 144 3
290 1 211 -2 291 -7 394 -24z m-372 -421 c10 -13 18 -39 18 -60 0 -30 -6 -44
-31 -64 -35 -30 -58 -32 -98 -11 -50 25 -58 99 -15 142 22 22 32 25 67 20 26
-4 49 -14 59 -27z m-297 -4 c29 -44 30 -89 3 -121 -23 -26 -34 -29 -139 -41
-63 -8 -170 -29 -239 -49 -71 -20 -126 -30 -128 -25 -5 14 -23 12 -20 -2 2 -6
-15 -18 -37 -26 -208 -77 -371 -158 -525 -261 l-85 -57 -54 69 -54 70 23 17
c59 45 313 191 390 225 128 56 279 108 296 101 8 -3 13 -2 10 3 -7 10 106 44
237 71 54 11 103 23 108 26 10 6 118 20 171 23 19 1 32 -7 43 -23z m578 14
c184 -27 432 -92 577 -152 52 -22 119 -49 149 -60 115 -44 431 -223 431 -244
0 -4 -25 -36 -56 -71 -54 -61 -57 -63 -78 -49 -178 127 -385 231 -616 309
-130 44 -256 73 -380 87 -125 15 -125 15 -145 56 -18 38 -15 72 11 112 17 26
13 25 107 12z m-213 -1327 c1 -712 3 -831 15 -847 8 -11 15 -40 15 -64 0 -37
-6 -50 -34 -78 -96 -96 -237 27 -166 144 20 32 20 51 20 768 l0 736 -92 -7
c-238 -17 -402 -46 -598 -105 -157 -47 -214 -70 -317 -125 -278 -150 -508
-367 -659 -621 -238 -403 -229 -865 22 -1152 55 -63 169 -149 253 -191 115
-59 193 -73 419 -78 l202 -5 0 -80 0 -80 -217 4 c-196 5 -228 8 -316 32 -333
90 -582 336 -679 671 -20 71 -23 101 -23 265 0 207 12 282 72 455 71 205 196
403 363 579 161 168 309 274 533 381 317 151 635 222 1015 224 l172 1 0 -827z
m263 802 l47 -6 0 -612 c1 -512 3 -616 15 -637 8 -14 14 -44 15 -67 0 -61 -39
-103 -103 -110 -43 -5 -49 -3 -82 30 -43 43 -46 84 -10 142 l24 40 1 618 0
617 23 -4 c12 -3 43 -8 70 -11z m305 -76 c121 -40 353 -157 416 -209 26 -22
56 -40 66 -40 24 0 77 -45 95 -81 8 -15 15 -49 15 -74 0 -148 -171 -220 -272
-114 -46 49 -59 113 -34 167 14 28 15 37 4 44 -39 27 -227 117 -318 153 l-105
42 -3 71 c-3 69 -2 72 20 72 13 0 65 -14 116 -31z m-2317 6 c98 -51 88 -209
-16 -243 -86 -28 -165 33 -165 127 1 55 16 85 56 112 35 23 84 24 125 4z
m3350 -2 c15 -9 38 -36 51 -59 19 -37 21 -46 10 -82 -17 -57 -47 -90 -93 -102
-51 -14 -103 9 -136 59 -28 42 -29 73 -3 125 34 71 108 96 171 59z m-2026
-227 c75 -32 101 -142 46 -196 -36 -37 -72 -46 -121 -31 -52 15 -90 62 -90
109 0 48 32 100 73 117 41 18 50 18 92 1z m-1608 -17 c57 -28 93 -87 93 -155
0 -150 -176 -210 -274 -94 -71 85 -48 207 48 251 53 24 80 24 133 -2z m3930 2
c112 -52 108 -237 -7 -296 -16 -8 -47 -15 -70 -15 -136 0 -209 162 -120 264
58 65 122 81 197 47z m-1319 -71 c15 -15 22 -33 22 -60 0 -51 -29 -80 -81 -80
-71 0 -105 85 -54 135 30 31 82 33 113 5z m-1508 -38 c27 -34 25 -64 -6 -101
-33 -39 -74 -41 -109 -6 -43 42 -29 106 27 130 39 16 63 10 88 -23z m210 -140
c73 -55 37 -175 -56 -184 -24 -3 -48 -21 -105 -82 -41 -43 -116 -116 -166
-162 l-93 -84 -150 0 -150 0 0 65 0 65 123 0 122 0 132 124 c73 69 141 127
152 131 13 4 20 18 24 52 7 65 53 108 106 99 19 -3 47 -14 61 -24z m1428 -46
c14 -14 26 -40 29 -64 5 -37 9 -42 32 -42 20 0 49 -24 129 -106 l102 -107 23
19 c12 11 51 46 86 78 l63 57 201 -4 201 -5 48 -60 c26 -34 48 -64 48 -67 0
-3 -102 -5 -226 -5 l-226 0 -86 -79 c-108 -98 -124 -107 -154 -87 -13 8 -86
80 -164 159 -124 128 -144 144 -167 140 -43 -8 -74 5 -97 42 -25 40 -21 78 12
120 39 50 101 54 146 11z m-2977 -187 c-31 -60 -60 -109 -66 -109 -14 0 -132
56 -138 67 -5 7 44 100 100 186 l24 38 68 -37 68 -36 -56 -109z m4416 70 c35
-57 63 -106 63 -109 0 -3 -32 -21 -71 -42 l-71 -36 -14 34 c-8 19 -35 66 -59
104 -25 39 -45 74 -45 78 1 11 114 82 125 79 5 -2 38 -50 72 -108z m-2464 61
c37 -41 37 -96 1 -140 -24 -28 -31 -31 -80 -29 -30 1 -56 1 -58 -2 -3 -2 -119
-118 -259 -256 l-254 -253 -259 0 -259 0 -85 -85 -84 -84 3 -51 c2 -47 -1 -54
-34 -87 -33 -33 -38 -35 -87 -31 -66 7 -98 39 -98 100 0 39 26 98 43 98 4 0
73 63 152 140 l145 141 251 -2 250 -1 157 153 c282 274 266 261 319 274 44 11
49 15 54 46 8 51 27 79 62 95 44 19 87 10 120 -26z m-940 8 c80 -42 52 -158
-38 -158 -48 0 -75 29 -75 80 0 69 57 108 113 78z m-289 -307 c30 -33 30 -74
1 -109 -52 -62 -135 -33 -135 46 0 74 87 115 134 63z m2198 -21 c24 -25 29
-36 23 -58 -10 -42 -44 -72 -81 -72 -43 0 -73 27 -80 72 -5 30 -2 41 19 62 36
36 80 35 119 -4z m-3155 -30 c8 0 28 -13 44 -29 31 -32 38 -75 17 -114 -46
-87 -178 -59 -178 38 0 52 56 122 88 110 8 -3 20 -5 29 -5z m4831 -32 c43 -72
37 -124 -18 -153 -46 -24 -87 -19 -121 14 -66 66 -19 171 76 171 38 0 46 -4
63 -32z m-628 -16 c87 -64 95 -188 18 -259 -47 -43 -148 -49 -196 -11 -55 43
-80 112 -63 174 14 53 35 80 79 104 45 25 123 20 162 -8z m-2073 -62 c102 -46
122 -179 38 -260 -34 -33 -41 -35 -100 -35 -77 0 -109 20 -143 88 -27 53 -24
101 9 156 21 34 87 71 129 71 14 0 44 -9 67 -20z m1559 -25 c24 -10 39 -25 50
-50 8 -20 67 -90 132 -156 64 -66 119 -127 120 -136 5 -18 -56 -83 -78 -83 -8
0 -65 53 -125 119 -98 105 -113 118 -137 113 -15 -2 -39 -1 -53 2 -29 7 -65
59 -65 94 0 38 29 83 63 97 41 18 50 18 93 0z m-472 -71 c94 -61 85 -207 -14
-256 -67 -34 -133 -18 -185 44 -24 29 -27 38 -23 94 4 67 18 91 73 126 36 23
109 19 149 -8z m-3288 -159 c19 -8 34 -19 34 -24 0 -6 -9 -44 -20 -85 -11 -40
-26 -116 -33 -167 l-13 -94 -82 -3 c-71 -2 -82 -1 -82 14 0 56 60 359 76 385
5 8 74 -6 120 -26z m3662 -70 c0 -5 -61 -67 -135 -137 l-134 -128 -160 0 -161
0 -285 -277 -284 -276 -145 149 c-364 375 -446 454 -463 444 -10 -5 -90 -83
-179 -174 -150 -154 -164 -166 -197 -166 -52 0 -95 44 -95 98 0 33 6 45 32 67
23 20 39 25 59 21 25 -5 42 10 175 144 l148 150 66 0 66 0 75 -72 c41 -40 161
-162 268 -270 l193 -197 201 198 c111 109 228 221 260 250 l57 51 153 -6 152
-7 120 115 120 116 46 -42 c26 -22 47 -45 47 -51z m1359 40 c12 -47 45 -227
57 -307 l5 -38 -84 0 c-92 0 -95 2 -95 68 0 36 -42 250 -55 284 -5 13 3 20 42
32 26 8 63 14 82 13 33 -2 36 -5 48 -52z m-3602 -54 c16 -9 40 -38 53 -63 34
-66 24 -118 -32 -175 -52 -52 -98 -63 -162 -38 -78 30 -117 109 -94 193 25 94
142 135 235 83z m3093 -88 c91 -68 96 -202 10 -266 -57 -43 -150 -39 -207 8
-29 25 -30 25 -249 25 -175 0 -225 -3 -248 -15 -35 -18 -58 -19 -87 -4 -55 28
-73 94 -40 150 33 56 101 62 146 14 l23 -25 204 2 c196 3 205 4 208 23 6 31
47 80 84 99 42 21 120 16 156 -11z m-4252 -67 c40 -34 39 -90 -1 -122 -38 -30
-67 -30 -100 -1 -39 33 -39 91 -1 123 35 30 67 30 102 0z m1050 -220 c72 -61
-4 -180 -87 -136 -10 6 -26 24 -35 41 -21 41 -4 86 40 105 43 18 51 17 82 -10z
m-370 -11 c38 -16 64 -62 64 -115 0 -30 1 -31 31 -25 29 7 37 2 103 -63 l71
-70 220 -4 220 -4 3 -72 3 -72 -248 0 -248 0 -109 114 c-102 107 -111 113
-136 105 -37 -13 -76 3 -100 43 -37 61 -16 137 43 163 40 18 41 18 83 0z m998
-46 c35 -28 38 -100 4 -123 -31 -22 -84 -20 -108 4 -31 31 -27 93 6 119 15 12
37 21 49 21 12 0 34 -9 49 -21z m1614 14 l112 -6 0 -64 0 -63 -236 0 -235 0
-162 -152 c-89 -84 -172 -161 -183 -170 -19 -17 -22 -16 -67 30 l-48 48 195
185 c108 101 206 187 218 191 31 8 267 9 406 1z m497 -45 c31 -37 28 -71 -11
-105 -36 -33 -77 -30 -108 8 -30 35 -32 49 -11 89 17 32 27 38 72 39 23 1 38
-7 58 -31z m1058 -38 c45 -50 32 -136 -24 -166 -75 -38 -159 7 -159 86 0 52
13 76 53 101 44 27 93 19 130 -21z m-5173 -7 c28 -32 32 -41 27 -77 -4 -27
-15 -49 -32 -63 -49 -43 -102 -42 -152 1 -24 21 -28 32 -28 76 0 69 32 100
105 100 43 0 51 -4 80 -37z m341 8 c59 -59 33 -148 -49 -171 -96 -26 -164 99
-93 171 23 23 38 29 71 29 33 0 48 -6 71 -29z m4269 -62 l0 -71 -84 3 -84 3
-104 -97 -103 -97 -375 2 -375 3 -3 69 -3 69 348 -7 348 -6 102 100 103 100
115 0 115 0 0 -71z m-2262 -264 l160 -155 484 0 c430 -1 487 1 517 16 48 24
91 10 114 -38 16 -33 17 -40 3 -71 -23 -56 -69 -71 -126 -42 -18 9 -31 11 -35
5 -4 -6 -187 -10 -512 -10 l-505 0 -159 157 -159 157 -145 -3 -145 -2 0 70 0
71 174 0 174 0 160 -155z m1016 134 c20 -16 26 -29 26 -58 0 -76 -85 -111
-138 -57 -73 73 30 180 112 115z m1226 -124 c14 -7 38 -27 54 -44 24 -25 30
-42 34 -88 3 -49 0 -64 -20 -93 -52 -77 -143 -102 -226 -62 -33 15 -58 17
-219 12 l-183 -5 -158 -157 c-167 -167 -172 -171 -241 -147 -26 9 -31 16 -31
45 0 29 11 44 82 111 45 43 131 124 190 181 l107 102 186 0 c140 0 187 3 189
13 3 6 7 24 10 40 9 39 55 86 101 102 42 15 83 12 125 -10z m-4566 -62 c2 -16
8 -50 11 -78 12 -99 65 -312 105 -430 73 -211 192 -435 330 -620 84 -112 94
-121 152 -127 59 -7 101 -37 128 -94 54 -111 -26 -234 -151 -234 -68 0 -111
25 -139 81 -22 41 -24 101 -6 155 6 16 -8 38 -64 105 -178 209 -330 491 -418
775 -37 119 -88 345 -98 432 l-7 62 76 0 c74 0 75 0 81 -27z m366 1 c0 -121
153 -503 284 -709 138 -218 346 -445 644 -704 83 -73 152 -137 152 -142 0 -5
17 -9 39 -9 110 0 185 -135 132 -239 -67 -130 -263 -110 -299 30 -9 35 -8 52
7 93 l17 50 -96 77 c-400 322 -694 659 -857 984 -87 173 -165 400 -189 553
l-7 42 87 0 86 0 0 -26z m4738 -31 c-5 -32 -10 -63 -13 -70 -2 -6 12 -23 31
-38 51 -39 67 -77 62 -147 -3 -47 -10 -64 -34 -89 -56 -60 -126 -74 -200 -40
-104 47 -122 189 -34 271 26 25 39 47 44 75 17 104 10 95 85 95 l68 0 -9 -57z
m-3036 -60 c56 -54 21 -145 -56 -147 l-38 -1 6 -37 c9 -57 27 -88 60 -105 24
-12 86 -16 328 -21 l299 -5 238 -231 c130 -127 271 -261 313 -299 l75 -67 139
0 c164 -1 252 18 383 80 126 61 208 119 303 218 86 89 157 195 197 296 l21 51
85 -3 c47 -2 85 -5 85 -6 0 -2 -8 -27 -19 -57 -48 -141 -152 -301 -274 -423
-224 -225 -501 -337 -792 -323 -196 10 -173 -5 -523 339 l-307 301 -200 -6
c-345 -10 -433 6 -509 95 -49 57 -66 120 -66 243 l0 102 50 -5 c39 -3 56 0 82
17 46 29 86 27 120 -6z m-1177 -250 c25 -69 108 -213 174 -301 70 -94 199
-216 348 -329 112 -85 112 -85 148 -73 103 34 215 -50 215 -161 -1 -158 -191
-221 -294 -98 -24 28 -27 40 -25 87 l3 56 -65 38 c-190 116 -373 282 -509 463
-53 71 -170 285 -170 311 0 10 110 51 141 53 11 1 22 -16 34 -46z m2458 -25
c41 -30 70 -99 62 -148 -23 -134 -203 -165 -275 -48 -26 43 -25 91 1 146 39
79 138 103 212 50z m-1559 -129 c75 -162 231 -278 441 -331 78 -19 117 -22
285 -23 168 0 200 -2 222 -17 54 -35 42 -115 -20 -139 -17 -7 -109 -9 -257 -6
-190 4 -243 8 -306 25 -205 55 -387 188 -484 353 -30 52 -85 186 -85 210 0 5
37 9 83 9 l83 0 38 -81z m2286 -19 c44 -44 5 -140 -58 -140 -63 0 -96 90 -52
138 27 29 83 29 110 2z m-2629 -16 c58 -52 -6 -160 -78 -133 -75 27 -42 173
35 154 15 -4 34 -13 43 -21z m3536 -48 c14 -14 -84 -237 -172 -391 -57 -99
-204 -295 -251 -333 l-34 -29 15 -38 c29 -67 -2 -155 -67 -195 -40 -24 -126
-27 -168 -5 -92 47 -111 189 -37 265 38 39 65 50 122 50 40 0 47 4 88 53 110
131 195 263 298 469 40 79 77 149 83 157 8 10 25 12 65 7 30 -4 56 -8 58 -10z
m-1340 -73 c42 -19 73 -66 73 -108 0 -44 -35 -94 -77 -112 -33 -13 -43 -13
-83 -1 -49 15 -90 63 -90 105 0 41 28 92 62 113 40 24 69 25 115 3z m238 -675
c17 -29 31 -56 33 -59 1 -3 -63 -62 -143 -130 -132 -112 -146 -126 -140 -149
17 -68 17 -90 -5 -134 -69 -143 -277 -114 -306 42 -10 55 5 103 45 143 36 37
109 66 136 55 8 -3 42 22 77 56 95 92 252 228 263 228 6 0 24 -24 40 -52z
m-1567 -105 c11 -32 67 -186 125 -343 131 -357 237 -654 237 -663 0 -4 -51 -7
-113 -7 l-113 0 -13 38 c-7 20 -22 63 -34 95 l-20 59 -191 -4 -191 -3 -31 -90
-31 -90 -117 -3 c-81 -2 -116 1 -116 9 0 6 34 102 75 213 118 318 229 622 271
738 l39 108 102 0 101 0 20 -57z m742 -478 l0 -536 -102 3 -103 3 -3 490 c-2
270 0 509 3 533 l6 42 100 0 99 0 0 -535z m-2057 308 c42 -26 76 -89 77 -137
0 -51 -38 -114 -84 -141 -114 -67 -246 7 -246 139 0 54 16 89 57 128 55 52
127 56 196 11z m3145 0 c69 -51 92 -142 56 -219 -45 -95 -172 -120 -252 -50
-86 75 -81 201 12 268 37 27 47 29 99 26 37 -3 67 -12 85 -25z m-2940 -387
c42 -30 111 -73 152 -96 41 -24 77 -44 78 -46 2 -1 -13 -32 -33 -68 -36 -65
-37 -66 -63 -52 -109 57 -312 190 -312 204 0 4 17 23 36 42 20 19 40 43 45 53
5 9 12 17 15 17 2 0 39 -24 82 -54z m2670 -5 l52 -60 -62 -45 c-113 -80 -282
-176 -292 -165 -9 10 -67 131 -64 134 2 1 27 15 57 30 64 32 214 129 231 150
7 8 15 15 19 15 4 0 30 -27 59 -59z"/>
<path d="M6196 6858 c-9 -12 -16 -30 -16 -38 0 -23 42 -60 68 -60 24 0 52 35
52 66 0 50 -75 73 -104 32z"/>
<path d="M3106 6889 c-19 -28 -21 -80 -4 -97 17 -17 64 -15 82 4 19 19 21 77
3 92 -6 6 -24 13 -38 17 -21 5 -30 2 -43 -16z"/>
<path d="M7020 6880 c-6 -12 -10 -35 -8 -53 7 -70 108 -55 108 16 0 42 -15 57
-57 57 -22 0 -36 -6 -43 -20z"/>
<path d="M6818 6153 c-25 -30 -29 -54 -13 -79 20 -31 79 -34 95 -5 17 32 12
69 -12 85 -29 21 -51 20 -70 -1z"/>
<path d="M4790 6092 c-36 -11 -54 -74 -28 -100 21 -21 66 -14 84 14 29 44 -8
101 -56 86z"/>
<path d="M5841 6001 c-39 -39 -16 -91 39 -91 43 0 65 48 38 82 -22 28 -55 31
-77 9z"/>
<path d="M3973 5755 c-30 -21 -34 -51 -11 -80 25 -32 51 -32 77 1 27 34 26 40
-4 69 -28 29 -33 30 -62 10z"/>
<path d="M7051 5654 c-25 -32 -26 -43 -5 -72 30 -43 104 -17 104 36 0 27 -33
62 -59 62 -11 0 -29 -12 -40 -26z"/>
<path d="M7080 4920 c-39 -39 -14 -100 43 -100 28 0 57 32 57 62 0 24 -35 58
-60 58 -11 0 -29 -9 -40 -20z"/>
<path d="M3161 3584 c-12 -15 -21 -34 -21 -43 0 -26 38 -61 65 -61 50 0 75 85
33 114 -32 23 -54 20 -77 -10z"/>
<path d="M4057 3282 c-20 -22 -22 -73 -5 -90 21 -21 65 -14 87 14 43 55 -35
128 -82 76z"/>
<path d="M7610 4740 c-22 -22 -27 -72 -7 -88 6 -6 24 -13 38 -17 21 -5 31 -1
48 21 11 15 21 35 21 45 0 25 -35 59 -60 59 -11 0 -29 -9 -40 -20z"/>
<path d="M4197 3802 c-36 -40 -9 -102 45 -102 48 0 72 61 38 98 -25 27 -61 28
-83 4z"/>
<path d="M5856 4511 c-26 -29 -17 -73 17 -85 34 -12 58 0 71 37 19 52 -50 90
-88 48z"/>
<path d="M6971 3591 c-29 -29 -27 -65 5 -90 33 -26 56 -27 77 -3 20 22 22 75
4 90 -27 23 -65 24 -86 3z"/>
<path d="M6070 3280 c-11 -11 -20 -31 -20 -45 0 -28 32 -65 55 -65 21 0 65 45
65 65 0 20 -44 65 -65 65 -8 0 -24 -9 -35 -20z"/>
<path d="M4751 3078 c-32 -101 -55 -187 -51 -192 12 -13 242 4 237 18 -2 6
-30 89 -61 184 -32 94 -59 172 -61 172 -3 0 -31 -82 -64 -182z"/>
<path d="M3497 3272 c-25 -27 -22 -78 5 -96 12 -9 28 -16 35 -16 22 0 53 39
53 65 0 29 -32 65 -58 65 -11 0 -26 -8 -35 -18z"/>
<path d="M6642 3274 c-33 -23 -27 -83 10 -103 25 -14 29 -14 55 5 39 29 41 66
7 93 -32 25 -42 26 -72 5z"/>
</g>
</svg>
